<?xml version="1.0" standalone="no"?>
<!DOCTYPE svg PUBLIC "-//W3C//DTD SVG 1.1//EN" "http://www.w3.org/Graphics/SVG/1.1/DTD/svg11.dtd">
<svg xmlns="http://www.w3.org/2000/svg">
<metadata>Generated by Fontastic.me</metadata>
<defs>
<font id="untitled-font-1" horiz-adv-x="512">
<font-face font-family="untitled-font-1" units-per-em="512" ascent="480" descent="-32"/>
<missing-glyph horiz-adv-x="512" />

<glyph glyph-name="paper" unicode="&#97;" d="M57 512l0-512 398 0 0 402-116 110z m61-265l208 0 0 45-208 0z m0-85l276 0 0 45-276 0z m0-84l276 0 0 44-276 0z"/>
<glyph glyph-name="video" unicode="&#98;" d="M256 0c-141 0-256 115-256 256 0 141 115 256 256 256 141 0 256-115 256-256 0-141-115-256-256-256z m-60 376l0-240 180 120z"/>
<glyph glyph-name="telegram" unicode="&#99;" d="M165 244l231 145c4 3 8-3 5-6l-191-181c-6-6-11-15-12-24l-6-49c-1-6-10-7-12-1l-25 90c-3 10 1 21 10 26m-156 21l118-45 46-150c3-9 14-13 22-6l66 54c6 6 16 6 23 1l119-88c8-6 20-1 22 9l87 426c2 11-9 21-19 17l-484-191c-12-5-12-22 0-27"/>
<glyph glyph-name="arrow-down" unicode="&#100;" d="M291 129l65 63 48-49-149-143-147 145 49 48 65-64 0 383 69 0z"/>
<glyph glyph-name="safe" unicode="&#101;" d="M172 400c0 44 36 79 80 79 43 0 79-35 79-79l0-63 33 0 0 63c0 62-50 112-112 112-62 0-113-50-113-112l0-63 33 0z m63-307l-64 65 23 23 41-41 61 61 23-23z m-158-93l343 0 0 306-343 0z"/>
<glyph glyph-name="deal" unicode="&#102;" d="M393 428c-22 0-40 19-40 42 0 23 18 42 40 42 23 0 41-19 41-42 0-23-18-42-41-42z m-275 0c-22 0-41 19-41 42 0 23 19 42 41 42 23 0 41-19 41-42 0-23-18-42-41-42z m292-34l67 0 0-199-21 0 0-194-125 0 0 271-151 0 0-271-124 0 0 194-22 0 0 199 67 0 0-128 34 0 0 128 67 0 0-87 108 0 0 87 66 0 0-128 34 0z"/>
<glyph glyph-name="prize" unicode="&#103;" d="M313 104c-15-14-35-22-57-22-22 0-42 8-57 22-13-3-27-3-40 1l0-105 28 0 69 24 69-24 28 0 0 105c-13-4-27-4-40-1z m128 247c-5 4-7 11-4 18 5 13 5 29-4 43-8 14-22 22-37 24-6 1-12 7-13 13-2 15-10 28-25 36-14 8-30 9-44 3-6-2-14 0-18 5-9 12-24 19-40 19-16 0-31-7-40-19-4-5-12-7-18-5-14 6-30 5-44-3-14-8-23-21-25-36-1-6-7-12-13-13-15-2-29-10-37-24-9-14-9-30-4-43 3-7 1-14-4-18-12-9-20-23-20-39 0-16 8-30 20-39 5-4 7-11 4-18-5-13-5-29 4-43 8-14 22-22 37-24 6-1 12-7 13-13 2-15 11-28 25-36 14-8 30-9 44-3 6 2 14 0 18-5 9-12 24-19 40-19 16 0 31 7 40 19 4 5 12 7 18 5 14-6 30-5 44 3 15 8 23 21 25 36 1 6 7 12 13 13 15 2 29 10 37 24 9 14 9 30 4 43-3 7-1 14 4 18 12 9 20 23 20 39 0 16-8 30-20 39z m-185-184c-82 0-148 65-148 145 0 80 66 145 148 145 82 0 148-65 148-145 0-80-66-145-148-145z m0 260c-65 0-118-52-118-115 0-63 53-115 118-115 65 0 118 52 118 115 0 63-53 115-118 115z m-14-162l-44 43 22 21 22-22 50 50 22-22z"/>
<glyph glyph-name="deliver" unicode="&#104;" d="M236 504l-219-125 0-248 219-124 31 18c-6 7-12 15-17 24l-14-9-15 9 0 198-174 99 0 17 15 8 174-99 72 41-174 99 29 17 174-99 73 41 14-8 0-17-174-99 0-59c25 42 72 71 125 71 29 0 56-9 79-23l0 143z m209-404l-54 0 0-53-32 0 0 53-54 0 0 32 54 0 0 53 32 0 0-53 54 0z m-70 130c-64 0-116-51-116-114 0-63 52-114 116-114 64 0 116 51 116 114 0 63-52 114-116 114z"/>
<glyph glyph-name="approve" unicode="&#105;" d="M290 482l0 30-60 0 0-30-52 0 0-60 163 0 0 60z m81-30l0-60-223 0 0 60-63 0 0-452 350 0 0 452z m-211-245l100 0 0-30-100 0z m87-152l-43 43 21 21 22-22 49 50 21-22z m113 182l-200 0 0 30 200 0z m0 60l-200 0 0 30 200 0z"/>
<glyph glyph-name="discount" unicode="&#106;" d="M477 431l-396-396-46 46 396 396z m-57-339c-12-12-30-12-42 0-12 12-12 31 0 42 12 12 30 12 42 0 12-11 12-30 0-42m35 77c-31 31-81 31-112 0-31-31-31-81 0-112 31-31 81-31 112 0 31 31 31 81 0 112m-321 209c-11-12-30-12-42 0-12 11-12 30 0 42 12 12 31 12 42 0 12-12 12-31 0-42m35 77c-31 31-81 31-112 0-31-31-31-81 0-112 31-31 81-31 112 0 31 31 31 81 0 112"/>
<glyph glyph-name="linkedin" unicode="&#107;" d="M10 0l0 341 106 0 0-341z m378 352c72 0 124-44 124-136l0-216-105 0 0 179c0 49-19 77-58 77-42 0-64-29-64-77l0-179-102 0 0 341 102 0 0-46c0 0 30 57 103 57z m-325 160c34 0 62-28 62-63 0-35-28-63-62-63-35 0-63 28-63 63 0 35 28 63 63 63z"/>
<glyph glyph-name="youtube" unicode="&#108;" d="M190 180l0 162c54-27 108-54 163-81-55-27-109-54-163-81m313 192c-6 26-28 45-55 48-64 7-128 7-192 7-64 0-128 0-192-7-26-3-49-22-55-48-9-37-9-78-9-116 0-38 0-79 9-116 6-26 28-45 55-48 64-7 128-7 192-7 64 0 128 0 192 7 26 3 49 22 55 48 9 37 9 78 9 116 0 38 0 79-9 116"/>
<glyph glyph-name="external-link" unicode="&#109;" d="M0 0l512 0 0 512-512 0z m230 429l199 0 0-182-56 0 0 87-260-260-39 39 260 260-104 0z"/>
<glyph glyph-name="tixico" unicode="&#110;" d="M433 512l79-79-433-433-79 79 177 177-177 177 79 79 177-177z m-157-355l79 79 157-157-79-79z"/>
<glyph glyph-name="chevron-down" unicode="&#111;" d="M429 417l83-82-258-242-254 246 84 80 171-165z"/>
<glyph glyph-name="paper-circle" unicode="&#112;" d="M256 0c-141 0-256 115-256 256 0 141 115 256 256 256 141 0 256-115 256-256 0-141-115-256-256-256z m-90 376l0-240 180 0 0 189-52 51z m27-124l0 21 95 0 0-21z m0-40l0 21 126 0 0-21z m0-40l0 21 126 0 0-21z"/>
<glyph glyph-name="close" unicode="&#113;" d="M50 401l362-362 50 49-362 362z m50-362l362 362-50 49-362-362z"/>
<glyph glyph-name="burger" unicode="&#114;" d="M0 372l512 0 0 70-512 0z m0-163l512 0 0 70-512 0z m0-162l512 0 0 69-512 0z"/>
<glyph glyph-name="chevron-down-1" unicode="&#115;" d="M429 408l83-77-258-229-254 232 84 76 171-156z"/>
<glyph glyph-name="slide-deck" unicode="&#116;" d="M256 0c-141 0-256 115-256 256 0 141 115 256 256 256 141 0 256-115 256-256 0-141-115-256-256-256z m-69 341l136 0 0 20-136 0z m-24-40l184 0 0 20-184 0z m-27-146l238 0 0 125-238 0z"/>
<glyph glyph-name="check" unicode="&#117;" d="M199 207l226 191 59-68-285-241-171 145 59 68z"/>
<glyph glyph-name="bitcointalk" unicode="&#118;" d="M344 171c-2-5-5-9-8-12-3-4-7-7-12-9-5-3-10-5-15-7-4-2-10-3-17-4-6-1-12-2-17-3-5 0-11-1-18-1-7 0-13-1-16-1-4 0-9 1-15 1-6 0-10 0-12 0l0 104c2 0 7 0 15 0 8 0 15 0 20 0 5 0 12 0 21-1 9 0 17-1 23-2 6-2 13-3 20-6 7-3 13-6 18-9 4-4 8-9 11-15 3-5 5-12 5-19 0-6-1-11-3-16z m-130 210c2 0 6 0 13 0 6 0 12 0 16 0 5 0 11 0 18-1 8 0 14-1 19-2 5-1 11-3 17-5 6-3 11-5 15-9 3-3 6-8 9-13 3-5 4-11 4-18 0-6-1-11-3-15-2-5-5-9-8-12-4-3-8-6-12-9-4-2-8-4-15-5-6-2-11-3-15-4-5 0-11-1-17-1-7-1-12-1-16-1-3 0-8 0-14 0-6 0-10 0-11 0z m212-138c-12 16-30 26-53 32 30 16 43 42 40 79-1 14-5 26-11 36-7 10-15 18-26 24-10 6-22 10-35 14-12 3-26 5-43 6l0 78-47 0 0-75c-8 0-21-1-37-1l0 76-48 0 0-78c-7 0-17 0-30 0l-65 0 0-50 34 0c16 0 25-7 28-21l0-88c2 0 3 0 5-1l-5 0 0-123c-2-11-8-16-18-16l-34 0-10-56 62 0c4 0 9 0 17 0 7 0 12-1 16-1l0-78 48 0 0 78c8-1 21-1 37-1l0-77 47 0 0 78c17 1 32 3 45 5 13 2 26 6 38 11 11 5 21 11 29 18 8 7 15 16 20 27 5 11 9 24 10 39 3 28-2 50-14 65z"/>
<glyph glyph-name="facebook" unicode="&#119;" d="M194 0l99 0 0 258 69 0 8 87-77 0 0 49c0 20 4 28 23 28l54 0 0 90-69 0c-74 0-107-34-107-98l0-69-52 0 0-88 52 0z"/>
<glyph glyph-name="medium" unicode="&#120;" d="M498 433l-39-36c-3-2-5-6-4-10l0-262c-1-4 1-8 4-10l38-36 0-8-190 0 0 8 39 36c4 4 4 5 4 11l0 212-108-266-15 0-127 266 0-178c-1-8 2-15 7-21l51-59 0-8-144 0 0 8 51 59c5 6 8 13 7 21l0 205c0 6-2 12-7 16l-45 52 0 8 141 0 108-229 95 229 134 0z"/>
<glyph glyph-name="reddit" unicode="&#121;" d="M334 190c-21 0-37 16-37 37 0 20 16 37 37 37 20 0 37-17 37-37 0-21-17-37-37-37m4-53c-17-17-44-26-82-26 0 0 0 1 0 1 0 0 0-1 0-1-38 0-65 9-82 26-3 3-3 8 0 11 3 3 8 3 11 0 14-14 37-21 71-21 0 0 0 0 0 0 0 0 0 0 0 0 34 0 57 7 71 21 3 3 8 3 11 0 3-3 3-8 0-11m-197 90c0 20 17 37 37 37 21 0 37-17 37-37 0-21-16-37-37-37-20 0-37 16-37 37m371 48c0 31-25 56-57 56-15 0-28-6-39-16-38 26-91 42-149 44l32 100 86-20c0-1 0-1 0-2 0-25 20-46 46-46 25 0 46 21 46 46 0 26-21 47-46 47-20 0-36-13-43-30l-93 22c-4 1-8-2-9-6l-35-111c-61 0-116-17-156-43-10 10-24 15-38 15-32 0-57-25-57-56 0-20 11-39 28-49-1-6-2-12-2-18 0-83 103-151 229-151 126 0 229 68 229 151 0 6-1 12-2 17 18 10 30 29 30 50"/>
<glyph glyph-name="twitter" unicode="&#122;" d="M14 113c44-26 96-42 152-42 184 0 289 146 282 278 20 13 36 29 50 48-18-7-37-12-57-15 20 12 36 30 43 52-19-11-40-18-63-23-18 19-43 30-72 30-64 0-111-56-97-115-82 4-155 41-204 98-26-42-14-97 31-125-17 1-32 5-45 12-1-43 32-84 79-93-14-3-29-4-45-1 13-38 50-65 93-65-42-31-94-45-147-39"/>
<glyph glyph-name="email" unicode="&#65;" d="M335 256l177 159 0-318z m-79-71l50 45 177-159-454 0 177 159z m-227 256l454 0-227-204z m-29-344l0 318 177-159z"/>
<glyph glyph-name="phone" unicode="&#66;" d="M484 156c-35 0-69 6-103 18-8 2-20 0-28-6l-63-63c-80 40-145 108-188 188l63 63c9 8 11 19 6 28-9 31-15 65-15 100 0 17-11 28-28 28l-100 0c-17 0-28-11-28-28 0-268 216-484 484-484 17 0 28 11 28 28l0 100c0 17-11 28-28 28"/>
<glyph glyph-name="event-date" unicode="&#67;" d="M446 448l66 0 0-104-512 0 0 104 66 0 0-63 100 0 0 63 180 0 0-63 100 0z m-175-262l0 55 60 0 0-55z m0-84l0 55 60 0 0-55z m-175 312l0 70 40 0 0-70z m280 0l0 70 40 0 0-70z m-285-312l0 55 60 0 0-55z m90 84l0 55 60 0 0-55z m-90 0l0 55 60 0 0-55z m270 0l0 55 59 0 0-55z m-180-84l0 55 60 0 0-55z m180 0l0 55 59 0 0-55z m-361-74l512 0 0 287-512 0z m61 45l389 0 0 197-389 0z"/>
<glyph glyph-name="event-location" unicode="&#68;" d="M252 262c-33 0-60 28-60 62 0 35 27 63 60 63 33 0 60-28 60-63 0-34-27-62-60-62m0 250c-100 0-181-84-181-188 0-39 12-77 34-109l5-7 142-208 140 206 6 9c23 32 34 70 34 109 0 104-81 188-180 188"/>
<glyph glyph-name="event-time" unicode="&#69;" d="M267 384l-11 0 0-128-85 0 0-43 128 0 0 171z m146-219c-16-28-38-50-66-66-28-16-58-24-91-24-33 0-63 8-91 24-28 16-50 38-66 66-16 28-24 58-24 91 0 33 8 63 24 91 16 28 38 50 66 66 28 16 58 24 91 24 33 0 63-8 91-24 28-16 50-38 66-66 16-28 24-58 24-91 0-33-8-63-24-91m65 219c-23 40-54 71-93 94-40 23-83 34-129 34-46 0-89-11-128-34-40-23-71-54-94-94-23-39-34-82-34-128 0-46 11-89 34-129 23-39 54-70 94-93 39-23 82-34 128-34 46 0 89 11 129 34 39 23 70 54 93 93 23 40 34 83 34 129 0 46-11 89-34 128"/>
<glyph glyph-name="download" unicode="&#70;" d="M15 511l90 0c8 0 14-6 14-14 0-8-6-14-14-14l-90 0c-8 0-14 6-14 14 0 8 6 14 14 14z m392-250l105 0 0-184-512 0 0 184 105 0 0-84 302 0z m-151 102l118 72 57-84-175-106-175 106 57 84z"/>
<glyph glyph-name="info" unicode="&#71;" d="M318 512c35 0 52-23 52-50 0-34-30-64-69-64-32 0-51 19-50 51 0 26 22 63 67 63z m-105-512c-27 0-47 17-28 90l31 131c5 20 6 29 0 29-8 0-43-15-64-29l-14 23c66 56 142 88 174 88 27 0 32-32 18-82l-35-137c-7-24-4-33 3-33 8 0 34 10 60 31l16-21c-64-65-134-90-161-90z"/>
<glyph glyph-name="plus" unicode="&#72;" d="M224 480l64 0 0-446-64 0z m254-192l0-64-446 0 0 64z"/>
<glyph glyph-name="minus" unicode="&#73;" d="M478 288l0-64-446 0 0 64z"/>
</font>
</defs>
</svg>
